<svg width="128" height="25" viewBox="0 0 128 25" fill="none" xmlns="http://www.w3.org/2000/svg">
<path d="M32.3351 20.4082C30.3994 20.4082 28.8596 19.8672 27.7158 18.7854C26.5719 17.6885 26 16.1258 26 14.0973V10.3108C26 8.28234 26.5719 6.72717 27.7158 5.64531C28.8596 4.54843 30.3994 3.99999 32.3351 3.99999C34.2709 3.99999 35.8107 4.54843 36.9545 5.64531C38.0984 6.72717 38.6703 8.28234 38.6703 10.3108V14.0973C38.6703 16.1258 38.0984 17.6885 36.9545 18.7854C35.8107 19.8672 34.2709 20.4082 32.3351 20.4082ZM32.3351 17.7486C33.4203 17.7486 34.2635 17.4255 34.8648 16.7794C35.466 16.1333 35.7667 15.2693 35.7667 14.1875V10.2207C35.7667 9.13881 35.466 8.27483 34.8648 7.62872C34.2635 6.98261 33.4203 6.65955 32.3351 6.65955C31.2646 6.65955 30.4214 6.98261 29.8055 7.62872C29.2042 8.27483 28.9036 9.13881 28.9036 10.2207V14.1875C28.9036 15.2693 29.2042 16.1333 29.8055 16.7794C30.4214 17.4255 31.2646 17.7486 32.3351 17.7486Z" fill="#FAFAFA"/>
<path d="M41.3051 20.0926V8.91342H44.0327V10.3784H44.4287C44.6047 9.98777 44.9346 9.61963 45.4186 9.27404C45.9025 8.91342 46.6357 8.73311 47.6183 8.73311C48.4688 8.73311 49.2094 8.93596 49.84 9.34166C50.4852 9.73233 50.9838 10.2808 51.3357 10.987C51.6877 11.6782 51.8637 12.4896 51.8637 13.4212V20.0926H49.0921V13.6465C49.0921 12.8051 48.8867 12.174 48.4761 11.7533C48.0802 11.3326 47.5083 11.1222 46.7604 11.1222C45.9098 11.1222 45.2499 11.4152 44.7806 12.0012C44.3114 12.5722 44.0767 13.3761 44.0767 14.4129V20.0926H41.3051Z" fill="#FAFAFA"/>
<path d="M59.8312 20.4082C58.7461 20.4082 57.7855 20.1753 56.9496 19.7095C56.1284 19.2286 55.4832 18.56 55.0139 17.7035C54.5593 16.832 54.332 15.8103 54.332 14.6382V14.3678C54.332 13.1958 54.5593 12.1815 55.0139 11.3251C55.4685 10.4536 56.1064 9.78492 56.9276 9.31912C57.7489 8.83829 58.7021 8.59788 59.7872 8.59788C60.8578 8.59788 61.789 8.84581 62.5809 9.34166C63.3728 9.82248 63.9887 10.4986 64.4286 11.3701C64.8686 12.2266 65.0885 13.2258 65.0885 14.3678V15.3369H57.1476C57.1769 16.1033 57.4556 16.7268 57.9835 17.2077C58.5114 17.6885 59.1567 17.9289 59.9192 17.9289C60.6965 17.9289 61.2684 17.7561 61.635 17.4105C62.0016 17.0649 62.2802 16.6818 62.4709 16.261L64.7366 17.4781C64.5313 17.8688 64.2306 18.297 63.8347 18.7628C63.4534 19.2136 62.9401 19.6043 62.2949 19.9348C61.6497 20.2504 60.8284 20.4082 59.8312 20.4082ZM57.1696 13.2183H62.2729C62.2142 12.5722 61.9576 12.0538 61.503 11.6631C61.0631 11.2725 60.4838 11.0771 59.7652 11.0771C59.0173 11.0771 58.4234 11.2725 57.9835 11.6631C57.5435 12.0538 57.2723 12.5722 57.1696 13.2183Z" fill="#FAFAFA"/>
<path d="M67.4675 20.0926V4.31553H74.1546C75.1224 4.31553 75.9656 4.48833 76.6842 4.83392C77.4028 5.17951 77.96 5.66785 78.356 6.29893C78.7519 6.93002 78.9499 7.67379 78.9499 8.53026V8.80073C78.9499 9.74735 78.7299 10.5137 78.29 11.0997C77.8501 11.6857 77.3075 12.1139 76.6622 12.3844V12.7901C77.2488 12.8201 77.7034 13.0305 78.026 13.4212C78.3487 13.7968 78.51 14.3002 78.51 14.9313V20.0926H75.6064V15.3595C75.6064 14.9989 75.511 14.7059 75.3204 14.4805C75.1444 14.2551 74.8438 14.1424 74.4185 14.1424H70.3711V20.0926H67.4675ZM70.3711 11.4378H73.8466C74.5358 11.4378 75.0711 11.2499 75.4524 10.8743C75.8483 10.4836 76.0463 9.97274 76.0463 9.34166V9.11627C76.0463 8.48519 75.8557 7.98182 75.4744 7.60618C75.0931 7.21551 74.5505 7.02017 73.8466 7.02017H70.3711V11.4378Z" fill="#FAFAFA"/>
<path d="M85.6114 20.2729C84.7608 20.2729 84.0129 20.0776 83.3677 19.6869C82.7371 19.2812 82.2458 18.7253 81.8939 18.0191C81.5419 17.3128 81.366 16.5014 81.366 15.5849V8.91342H84.1376V15.3595C84.1376 16.2009 84.3356 16.832 84.7315 17.2527C85.1421 17.6735 85.7214 17.8838 86.4693 17.8838C87.3198 17.8838 87.9797 17.5983 88.449 17.0273C88.9183 16.4413 89.1529 15.6299 89.1529 14.5932V8.91342H91.9245V20.0926H89.1969V18.6276H88.801C88.625 19.0032 88.295 19.3714 87.8111 19.732C87.3272 20.0926 86.5939 20.2729 85.6114 20.2729Z" fill="#FAFAFA"/>
<path d="M95.0088 20.0926V8.91342H97.7364V10.3784H98.1323C98.3083 9.98777 98.6383 9.61963 99.1222 9.27404C99.6061 8.91342 100.339 8.73311 101.322 8.73311C102.172 8.73311 102.913 8.93596 103.544 9.34166C104.189 9.73233 104.687 10.2808 105.039 10.987C105.391 11.6782 105.567 12.4896 105.567 13.4212V20.0926H102.796V13.6465C102.796 12.8051 102.59 12.174 102.18 11.7533C101.784 11.3326 101.212 11.1222 100.464 11.1222C99.6135 11.1222 98.9536 11.4152 98.4843 12.0012C98.015 12.5722 97.7804 13.3761 97.7804 14.4129V20.0926H95.0088Z" fill="#FAFAFA"/>
<path d="M109.841 20.3316C109.452 20.3316 109.119 20.1898 108.84 19.9062C108.571 19.612 108.436 19.2601 108.436 18.8503C108.436 18.4406 108.571 18.0939 108.84 17.8103C109.119 17.5161 109.452 17.369 109.841 17.369C110.229 17.369 110.558 17.5161 110.827 17.8103C111.106 18.0939 111.246 18.4406 111.246 18.8503C111.246 19.2601 111.106 19.612 110.827 19.9062C110.558 20.1898 110.229 20.3316 109.841 20.3316Z" fill="#FAFAFA"/>
<path d="M115.843 20.3159C114.797 20.3159 113.975 20.048 113.377 19.5122C112.789 18.9764 112.495 18.2673 112.495 17.3848C112.495 16.4603 112.794 15.7459 113.392 15.2417C113.999 14.7374 114.871 14.4853 116.007 14.4853H118.742V14.1071C118.742 12.9514 118.104 12.3736 116.829 12.3736C115.753 12.3736 115.1 12.7833 114.871 13.6028H112.644C112.824 12.5942 113.272 11.8273 113.99 11.3021C114.717 10.7663 115.663 10.4984 116.829 10.4984C118.144 10.4984 119.146 10.8135 119.833 11.4439C120.521 12.0637 120.864 12.9724 120.864 14.1701V17.7945H121.925V20.1425H119.639V18.6297H119.011C118.702 19.1655 118.284 19.5805 117.756 19.8746C117.238 20.1688 116.6 20.3159 115.843 20.3159ZM116.172 18.5037C116.66 18.5037 117.098 18.4091 117.487 18.22C117.875 18.0204 118.179 17.7578 118.398 17.4321C118.627 17.0959 118.742 16.723 118.742 16.3132V16.0926H116.127C115.12 16.0926 114.617 16.4866 114.617 17.2745C114.617 17.6632 114.752 17.9679 115.021 18.1885C115.3 18.3986 115.683 18.5037 116.172 18.5037Z" fill="#FAFAFA"/>
<path d="M123.639 20.1425V10.6875H125.865V20.1425H123.639ZM124.745 9.64742C124.396 9.64742 124.097 9.52135 123.848 9.26921C123.609 9.00657 123.489 8.6914 123.489 8.32371C123.489 7.95601 123.609 7.6461 123.848 7.39396C124.097 7.13132 124.396 7 124.745 7C125.093 7 125.387 7.13132 125.626 7.39396C125.875 7.6461 126 7.95601 126 8.32371C126 8.6914 125.875 9.00657 125.626 9.26921C125.387 9.52135 125.093 9.64742 124.745 9.64742Z" fill="#FAFAFA"/>
<path d="M14.5535 19.0704C14.8149 19.0578 15.062 19.0994 15.3037 19.0447C15.3109 18.9451 15.2477 18.9048 15.2005 18.8565C14.6628 18.307 14.1243 17.7584 13.5865 17.2092C13.4243 17.0435 13.4245 17.0425 13.5833 16.8806C14.8317 15.6095 16.0806 14.3388 17.3285 13.0672C17.9817 12.4016 18.4229 11.6155 18.5889 10.683C18.8207 9.38051 18.5495 8.19247 17.7624 7.1401C17.083 6.23165 16.176 5.68824 15.0822 5.46897C14.8623 5.4249 14.6375 5.41167 14.4127 5.4116C11.4583 5.41074 8.50387 5.4096 5.54948 5.40862C5.30684 5.40854 5.30544 5.40889 5.30543 5.70573C5.30523 10.5106 5.30542 15.3155 5.3055 20.1203C5.3055 20.2064 5.30503 20.3031 5.3044 20.4057C5.30089 20.9815 4.84329 21.4564 4.28185 21.4573L4.00147 21.4577C3.44862 21.4585 3 20.9992 3 20.4322C3.00001 17.6721 3.00036 14.7597 3.00033 12.0431C3.00031 9.78433 3.00036 7.39237 3.00036 5.07241C3.00035 3.9395 3.89558 3.02104 5.00007 3.01734C8.08734 3.007 11.2748 2.98215 14.3058 3.02125C16.9945 3.05594 19.0074 4.33341 20.2883 6.76319C20.6706 7.4882 20.8808 8.277 20.9618 9.09988C21.1325 10.8339 20.7307 12.4137 19.7514 13.8402C19.4119 14.3349 18.9872 14.7504 18.5715 15.1746C18.013 15.7444 17.4584 16.3181 16.8957 16.8835C16.779 17.0007 16.774 17.0741 16.8934 17.1956C18.2281 18.5538 19.5577 19.9171 20.8886 21.2791C20.9246 21.3159 20.9717 21.345 20.971 21.4146C20.8881 21.483 20.7864 21.4523 20.6935 21.4523C17.3994 21.4543 14.1052 21.4541 10.811 21.4539C9.80899 21.4539 8.80688 21.4532 7.80481 21.4521C7.56236 21.4518 7.56157 21.4507 7.56156 21.2109C7.56143 16.7829 7.56144 12.3548 7.56165 7.92679C7.56166 7.69678 7.56258 7.69566 7.79079 7.69561C9.98499 7.69511 12.1792 7.69345 14.3734 7.69552C15.3871 7.69648 16.2534 8.48512 16.4008 9.50934C16.5099 10.2667 16.2928 10.9024 15.7714 11.4373C14.5152 12.726 13.2558 14.0113 12.0022 15.3027C11.8875 15.4208 11.8211 15.4107 11.7128 15.2978C11.1806 14.743 10.6412 14.1953 10.1028 13.6468C10.0563 13.5993 10.0209 13.5296 9.93979 13.5289C9.87179 13.5816 9.88929 13.6575 9.88919 13.7249C9.88779 15.4267 9.88749 17.1284 9.88779 18.8301C9.88789 19.0495 9.91239 19.0712 10.1477 19.0712C11.6105 19.0712 13.0734 19.0707 14.5535 19.0704Z" fill="#5EE9B5"/>
</svg>
