<svg width="160" height="162" viewBox="0 0 160 162" fill="none" xmlns="http://www.w3.org/2000/svg">
<g style="mix-blend-mode:luminosity">
<path fill-rule="evenodd" clip-rule="evenodd" d="M77.2729 30.3629C77.9762 30.3327 78.6832 30.3175 79.3938 30.3175C80.1044 30.3175 80.8115 30.3327 81.5147 30.3629L81.3862 33.3601C80.7257 33.3318 80.0615 33.3175 79.3938 33.3175C78.7261 33.3175 78.0619 33.3318 77.4014 33.3601L77.2729 30.3629ZM85.7396 30.7274C87.1517 30.9113 88.5448 31.1557 89.9162 31.458L89.2705 34.3877C87.9842 34.1042 86.6773 33.8749 85.3522 33.7023L85.7396 30.7274ZM68.8714 31.458C70.2428 31.1557 71.6359 30.9113 73.048 30.7274L73.4354 33.7023C72.1103 33.8749 70.8034 34.1042 69.5171 34.3877L68.8714 31.458ZM60.7883 34.0012C62.0894 33.4622 63.4192 32.978 64.7747 32.5516L65.675 35.4133C64.4038 35.8132 63.1567 36.2673 61.9364 36.7728L60.7883 34.0012ZM94.0129 32.5516C95.3684 32.978 96.6982 33.4622 97.9994 34.0012L96.8512 36.7728C95.6309 36.2673 94.3838 35.8132 93.1126 35.4133L94.0129 32.5516ZM101.843 35.7949C103.1 36.4501 104.325 37.1586 105.514 37.9174L103.9 40.4465C102.785 39.7345 101.636 39.0698 100.456 38.4552L101.843 35.7949ZM53.2735 37.9174C54.4629 37.1586 55.6876 36.4501 56.9447 35.7949L58.3313 38.4552C57.152 39.0698 56.0031 39.7345 54.8871 40.4465L53.2735 37.9174ZM108.986 40.3516C110.108 41.2136 111.191 42.1235 112.233 43.0782L110.205 45.2896C109.228 44.3936 108.211 43.5396 107.158 42.7307L108.986 40.3516ZM46.5549 43.0782C47.5964 42.1235 48.6797 41.2136 49.8018 40.3516L51.6294 42.7307C50.5763 43.5396 49.5596 44.3936 48.5822 45.2896L46.5549 43.0782ZM115.231 46.0763C116.185 47.1178 117.095 48.2011 117.957 49.3232L115.578 51.1507C114.769 50.0977 113.915 49.081 113.019 48.1035L115.231 46.0763ZM40.8303 49.3232C41.6922 48.2011 42.6021 47.1178 43.5568 46.0763L45.7683 48.1035C44.8722 49.081 44.0183 50.0977 43.2093 51.1507L40.8303 49.3232ZM120.392 52.7949C121.15 53.9842 121.859 55.2089 122.514 56.466L119.854 57.8526C119.239 56.6734 118.574 55.5244 117.862 54.4085L120.392 52.7949ZM36.2735 56.466C36.9287 55.2089 37.6372 53.9842 38.3961 52.7949L40.9251 54.4085C40.2132 55.5244 39.5484 56.6734 38.9338 57.8526L36.2735 56.466ZM124.308 60.3096C124.847 61.6108 125.331 62.9406 125.757 64.296L122.896 65.1964C122.496 63.9252 122.042 62.6781 121.536 61.4578L124.308 60.3096ZM33.0302 64.296C33.4567 62.9406 33.9408 61.6108 34.4798 60.3096L37.2514 61.4578C36.7459 62.6781 36.2919 63.9252 35.8919 65.1964L33.0302 64.296ZM31.2061 72.5694C31.39 71.1573 31.6344 69.7642 31.9367 68.3927L34.8663 69.0385C34.5828 70.3248 34.3535 71.6317 34.181 72.9567L31.2061 72.5694ZM126.851 68.3927C127.153 69.7642 127.398 71.1573 127.582 72.5694L124.607 72.9567C124.434 71.6317 124.205 70.3248 123.921 69.0385L126.851 68.3927ZM30.7961 78.9152C30.7961 78.2046 30.8114 77.4975 30.8415 76.7942L33.8388 76.9228C33.8105 77.5832 33.7961 78.2475 33.7961 78.9152C33.7961 79.6124 33.8118 80.306 33.8427 80.9955L30.8457 81.1298C30.8128 80.3955 30.7961 79.6572 30.7961 78.9152ZM127.946 76.7942C127.976 77.4975 127.991 78.2046 127.991 78.9152C127.991 79.6232 127.976 80.3275 127.947 81.0278L124.949 80.9002C124.977 80.2424 124.991 79.5806 124.991 78.9152C124.991 78.2475 124.977 77.5832 124.949 76.9228L127.946 76.7942ZM127.585 85.2391C127.403 86.6479 127.16 88.0372 126.859 89.4046L123.929 88.7603C124.211 87.4782 124.439 86.1752 124.61 84.8534L127.585 85.2391ZM32.04 89.9009C31.7107 88.4708 31.4441 87.0168 31.2435 85.5421L34.2161 85.1377C34.4044 86.5217 34.6545 87.886 34.9635 89.2276L32.04 89.9009ZM125.77 93.4911C125.345 94.8425 124.863 96.1683 124.325 97.4658L121.554 96.3179C122.057 95.1013 122.51 93.8584 122.908 92.5915L125.77 93.4911ZM34.8059 98.3111C34.2208 96.9613 33.6946 95.5796 33.2307 94.1693L36.0806 93.232C36.5157 94.5551 37.0094 95.8515 37.5584 97.1179L34.8059 98.3111ZM122.537 101.298C121.885 102.55 121.179 103.771 120.423 104.958L117.893 103.346C118.602 102.232 119.265 101.087 119.877 99.9116L122.537 101.298ZM39.0506 106.079C38.2295 104.856 37.462 103.592 36.7516 102.292L39.3841 100.853C40.0508 102.073 40.7711 103.259 41.5418 104.408L39.0506 106.079ZM118 108.421C117.571 108.98 117.131 109.531 116.679 110.071L115.529 109.109L116.68 110.07C116.68 110.07 116.68 110.071 116.679 110.071M43.1183 111.331C42.6276 110.78 42.1492 110.217 41.6834 109.643L44.0129 107.752C44.4493 108.29 44.8977 108.818 45.3574 109.334C45.7838 109.809 46.22 110.275 46.6655 110.731L44.5185 112.827C44.0431 112.34 43.5779 111.843 43.123 111.336L43.1183 111.331ZM112.28 114.692C111.237 115.653 110.151 116.568 109.027 117.436L107.195 115.06C108.25 114.246 109.269 113.387 110.248 112.485L112.28 114.692ZM50.6822 118.173C49.5819 117.369 48.5166 116.519 47.4889 115.628L49.4547 113.362C50.4197 114.199 51.4197 114.996 52.4525 115.751L50.6822 118.173ZM105.545 119.884C104.352 120.648 103.124 121.36 101.862 122.018L100.474 119.359C101.657 118.741 102.81 118.073 103.929 117.357L105.545 119.884ZM57.6512 122.42C56.4296 121.81 55.2374 121.15 54.0772 120.443L55.6387 117.881C56.7273 118.545 57.8458 119.164 58.9917 119.736L57.6512 122.42ZM98.0049 123.82C96.6993 124.361 95.3648 124.847 94.004 125.275L93.1043 122.413C94.3804 122.012 95.632 121.556 96.8563 121.049L98.0049 123.82ZM65.2365 125.438C63.9265 125.041 62.6401 124.591 61.3798 124.09L62.4888 121.302C63.6707 121.773 64.877 122.195 66.1054 122.566L65.2365 125.438ZM89.8912 126.372C88.5148 126.674 87.1165 126.919 85.6987 127.103L85.3125 124.128C86.6433 123.955 87.9554 123.726 89.2465 123.442L89.8912 126.372ZM73.2211 127.133C71.86 126.962 70.5166 126.735 69.1932 126.454L69.8159 123.52C71.057 123.783 72.3172 123.996 73.5943 124.156L73.2211 127.133ZM81.4601 127.468C80.7547 127.498 80.0454 127.513 79.3326 127.513C78.6485 127.513 77.9677 127.499 77.2905 127.471L77.4142 124.473C78.0502 124.5 78.6897 124.513 79.3326 124.513C80.0028 124.513 80.6694 124.499 81.3321 124.47L81.4601 127.468Z" fill="#4F576B"/>
<path d="M96.7357 82.0043C96.3802 83.5153 95.8469 85.1151 95.2248 86.4482C93.5361 89.7367 90.8697 92.3142 87.5812 94.0029C84.2038 95.6916 80.2043 96.4026 76.2047 95.5138C66.7836 93.5585 60.7399 84.3152 62.6952 74.894C64.6505 65.4729 73.805 59.3403 83.2262 61.3845C86.6035 62.0955 89.5365 63.7842 92.0251 66.0951C96.2024 70.2724 97.98 76.3161 96.7357 82.0043Z" fill="url(#paint0_linear_146_917)"/>
<path d="M85.2703 76.938H81.2708V72.9384C81.2708 72.1385 80.6487 71.4275 79.7599 71.4275C78.96 71.4275 78.2489 72.0496 78.2489 72.9384V76.938H74.2494C73.4495 76.938 72.7385 77.5601 72.7385 78.4489C72.7385 79.3377 73.3606 79.9598 74.2494 79.9598H78.2489V83.9594C78.2489 84.7593 78.8711 85.4703 79.7599 85.4703C80.5598 85.4703 81.2708 84.8481 81.2708 83.9594V79.9598H85.2703C86.0702 79.9598 86.7813 79.3377 86.7813 78.4489C86.7813 77.5601 86.0702 76.938 85.2703 76.938Z" fill="#474E61"/>
<path d="M100.209 31.8379C100.209 37.3924 97.9894 42.3298 94.5363 46.0328C94.2897 46.4031 93.9197 46.65 93.5497 46.8969C89.85 50.353 84.917 52.4514 79.4908 52.4514C75.1745 52.4514 71.1048 51.0936 67.775 48.7484C66.7884 48.1312 65.9252 47.2672 65.0619 46.5266C61.2388 42.8235 58.8957 37.6393 58.8957 31.8379C58.8957 20.4819 68.145 11.2244 79.4908 11.2244C90.9599 11.2244 100.209 20.4819 100.209 31.8379Z" fill="#E9F0F8"/>
<g filter="url(#filter0_d_146_917)">
<path d="M100.209 31.8368C100.209 37.885 97.6193 43.1927 93.5497 47.0192C89.8499 50.4753 84.917 52.5737 79.4907 52.5737C75.1744 52.5737 71.1047 51.216 67.775 48.8707C62.3487 45.1677 58.8956 38.996 58.8956 31.9602C58.8956 20.6042 68.1449 11.3467 79.4907 11.3467C90.8365 11.3467 100.209 20.4808 100.209 31.8368Z" fill="url(#paint1_linear_146_917)"/>
</g>
<path d="M94.5367 46.0329C94.29 46.4032 93.92 46.6501 93.5501 46.8969C89.8504 50.3531 84.9174 52.4515 79.4912 52.4515C75.1748 52.4515 71.1051 51.0937 67.7754 48.7484C66.7888 48.1313 65.9255 47.2672 65.0623 46.5266C65.5556 45.9094 66.2955 45.5391 67.8987 44.922L68.5153 44.6751C69.7486 44.1814 71.4751 43.5642 73.6949 42.5767C74.0649 42.4533 74.3116 42.2064 74.5582 41.9596C74.6815 41.8361 74.8048 41.7127 74.8048 41.4658C74.9282 41.2189 75.0515 40.8486 75.0515 40.6018V36.405C74.9282 36.2816 74.9282 36.2816 74.8048 36.1581C74.4349 35.6644 74.1882 35.0472 74.1882 34.3066L73.9416 34.1832C72.8317 34.4301 72.955 33.3192 72.7083 31.0973C72.585 30.2333 72.7083 29.9864 73.2016 29.863L73.5716 29.3693C72.8317 27.6412 72.4617 26.0365 72.4617 24.8022C72.4617 22.7038 73.325 21.346 74.5582 20.7289C73.8183 19.2476 73.8183 18.7539 73.8183 18.7539C73.8183 18.7539 78.1346 19.4945 79.6145 19.2476C81.4643 18.8773 84.4241 19.3711 85.534 21.8398C87.3839 22.5804 88.0005 23.6913 88.2472 24.9256C88.4938 26.9006 87.3839 28.999 87.1372 29.863V29.9864C87.3839 30.1099 87.5072 30.3567 87.3839 31.2208C87.1372 33.3191 87.1372 34.5535 86.1506 34.3066L85.1641 36.0347C85.1641 36.2816 85.1641 36.2816 85.0407 36.405C85.0407 36.7753 85.0407 37.3925 85.0407 40.7252C85.0407 41.0955 85.1641 41.5892 85.4107 41.8361C85.534 41.9595 85.534 42.083 85.6574 42.083C85.904 42.3299 86.1506 42.5767 86.3973 42.5767C88.8638 43.5642 90.5903 44.3048 91.9469 44.7985C93.1801 45.2923 94.0434 45.6626 94.5367 46.0329Z" fill="#8E94A7"/>
<path d="M94.5366 46.0328C94.29 46.4031 93.92 46.65 93.55 46.8968C89.8503 50.353 84.9173 52.4514 79.4911 52.4514C75.1748 52.4514 71.1051 51.0936 67.7753 48.7484C66.7887 48.1312 65.9255 47.2671 65.0622 46.5265C65.5555 45.9094 66.2954 45.5391 67.8986 44.9219L68.5153 44.675C69.7485 44.1813 71.475 43.5641 73.6949 42.5766C74.0648 42.4532 74.3115 42.2063 74.5581 41.9595C75.7914 43.6876 77.7646 44.7985 80.1077 44.7985C82.3275 44.7985 84.3007 43.6876 85.534 42.0829C85.7806 42.3298 86.0273 42.5766 86.2739 42.5766C88.7404 43.5641 90.4669 44.3047 91.8235 44.7985C93.1801 45.2922 94.0433 45.6625 94.5366 46.0328Z" fill="#464D60"/>
<path d="M87.0138 29.7396C87.1372 29.2458 86.8905 28.5052 86.6439 28.1349C86.6439 28.0115 86.5205 28.0115 86.5205 27.888C85.6573 26.16 83.8074 25.5428 82.0809 25.4194C77.5179 25.1725 77.1479 26.0365 75.7914 24.8022C76.2847 25.4194 76.2847 26.5303 75.5447 27.7646C75.0514 28.6286 74.1882 29.1224 73.3249 29.3693C71.2284 24.6788 72.3383 21.7163 74.3115 20.7289C73.5715 19.2476 73.5715 18.7539 73.5715 18.7539C73.5715 18.7539 77.8879 19.4945 79.3677 19.2476C81.2176 18.8773 84.1774 19.3711 85.2873 21.8398C87.1372 22.5804 87.7538 23.6913 88.0004 24.9256C88.3704 26.7771 87.2605 28.8755 87.0138 29.7396Z" fill="#292D35"/>
<path d="M75.1748 40.6016V36.4049C75.0514 36.2814 75.0514 36.2814 74.9281 36.158V35.9111C75.1747 36.2814 75.4214 36.6517 75.7914 36.8986L79.1211 39.2439C79.8611 39.861 80.971 39.861 81.7109 39.2439L84.794 36.5283C84.9173 36.4049 85.0407 36.4049 85.164 36.2814C85.164 36.6517 85.164 37.2689 85.164 40.6016C85.164 40.8485 85.164 40.9719 85.2873 41.2188H75.1748C75.0514 40.9719 75.1748 40.8485 75.1748 40.6016Z" fill="url(#paint2_linear_146_917)"/>
<path d="M137.142 108.04C137.142 113.594 134.922 118.532 131.469 122.235C131.223 122.605 130.853 122.852 130.483 123.099C126.783 126.555 121.85 128.653 116.424 128.653C112.108 128.653 108.038 127.296 104.708 124.95C103.722 124.333 102.858 123.469 101.995 122.728C98.172 119.025 95.8288 113.841 95.8288 108.04C95.8288 96.6838 105.078 87.4263 116.424 87.4263C127.893 87.4263 137.142 96.6838 137.142 108.04Z" fill="#E9F0F8"/>
<g filter="url(#filter1_d_146_917)">
<path d="M137.142 108.039C137.142 114.087 134.552 119.395 130.483 123.221C126.783 126.677 121.85 128.776 116.424 128.776C112.108 128.776 108.038 127.418 104.708 125.073C99.2818 121.37 95.8287 115.198 95.8287 108.162C95.8287 96.8062 105.078 87.5486 116.424 87.5486C127.77 87.5486 137.142 96.6827 137.142 108.039Z" fill="url(#paint3_linear_146_917)"/>
</g>
<path d="M131.47 122.235C131.224 122.605 130.854 122.852 130.484 123.099C126.784 126.555 121.851 128.653 116.425 128.653C112.108 128.653 108.039 127.296 104.709 124.95C103.722 124.333 102.859 123.469 101.996 122.729C102.489 122.111 103.229 121.741 104.832 121.124L105.449 120.877C106.682 120.383 108.409 119.766 110.629 118.779C110.998 118.655 111.245 118.408 111.492 118.161C111.615 118.038 111.738 117.915 111.738 117.668C111.862 117.421 111.985 117.051 111.985 116.804V112.607C111.862 112.483 111.862 112.483 111.738 112.36C111.368 111.866 111.122 111.249 111.122 110.509L110.875 110.385C109.765 110.632 109.889 109.521 109.642 107.299C109.519 106.435 109.642 106.188 110.135 106.065L110.505 105.571C109.765 103.843 109.395 102.238 109.395 101.004C109.395 98.9057 110.259 97.5479 111.492 96.9308C110.752 95.4495 110.752 94.9558 110.752 94.9558C110.752 94.9558 115.068 95.6964 116.548 95.4495C118.398 95.0792 121.358 95.573 122.468 98.0417C124.317 98.7823 124.934 99.8932 125.181 101.128C125.427 103.102 124.317 105.201 124.071 106.065V106.188C124.317 106.312 124.441 106.559 124.317 107.423C124.071 109.521 124.071 110.755 123.084 110.509L122.098 112.237C122.098 112.483 122.098 112.483 121.974 112.607C121.974 112.977 121.974 113.594 121.974 116.927C121.974 117.297 122.098 117.791 122.344 118.038C122.468 118.161 122.468 118.285 122.591 118.285C122.838 118.532 123.084 118.779 123.331 118.779C125.797 119.766 127.524 120.507 128.88 121C130.114 121.494 130.977 121.864 131.47 122.235Z" fill="#8E94A7"/>
<path d="M131.47 122.235C131.223 122.605 130.853 122.852 130.483 123.099C126.783 126.555 121.85 128.653 116.424 128.653C112.108 128.653 108.038 127.296 104.708 124.95C103.722 124.333 102.858 123.469 101.995 122.728C102.488 122.111 103.228 121.741 104.832 121.124L105.448 120.877C106.681 120.383 108.408 119.766 110.628 118.779C110.998 118.655 111.244 118.408 111.491 118.161C112.724 119.889 114.697 121 117.041 121C119.26 121 121.234 119.889 122.467 118.285C122.714 118.532 122.96 118.779 123.207 118.779C125.673 119.766 127.4 120.507 128.756 121C130.113 121.494 130.976 121.864 131.47 122.235Z" fill="#464D60"/>
<path d="M123.947 105.941C124.07 105.448 123.823 104.707 123.577 104.337C123.577 104.213 123.454 104.213 123.454 104.09C122.59 102.362 120.74 101.745 119.014 101.621C114.451 101.374 114.081 102.238 112.724 101.004C113.218 101.621 113.218 102.732 112.478 103.967C111.984 104.831 111.121 105.324 110.258 105.571C108.161 100.881 109.271 97.9182 111.244 96.9308C110.505 95.4495 110.505 94.9558 110.505 94.9558C110.505 94.9558 114.821 95.6964 116.301 95.4495C118.151 95.0792 121.11 95.573 122.22 98.0417C124.07 98.7823 124.687 99.8932 124.933 101.128C125.303 102.979 124.193 105.077 123.947 105.941Z" fill="#292D35"/>
<path d="M112.108 116.804V112.607C111.984 112.483 111.984 112.483 111.861 112.36V112.113C112.108 112.483 112.354 112.854 112.724 113.101L116.054 115.446C116.794 116.063 117.904 116.063 118.644 115.446L121.727 112.73C121.85 112.607 121.974 112.607 122.097 112.483C122.097 112.854 122.097 113.471 122.097 116.804C122.097 117.05 122.097 117.174 122.22 117.421H112.108C111.984 117.174 112.108 117.05 112.108 116.804Z" fill="url(#paint4_linear_146_917)"/>
<g filter="url(#filter2_d_146_917)">
<path d="M63.0612 108.349C63.0612 114.151 60.5947 119.335 56.6484 123.038C55.5384 124.025 54.4285 124.889 53.072 125.63C50.1122 127.358 46.6591 128.346 42.9594 128.346C39.2597 128.346 35.8066 127.358 32.8468 125.63C32.3535 125.383 31.9836 125.136 31.4903 124.766C26.3107 121.186 22.8576 115.138 22.8576 108.349C22.8576 97.2401 31.8603 88.3528 42.8361 88.3528C54.0586 88.2294 63.0612 97.2401 63.0612 108.349Z" fill="url(#paint5_linear_146_917)"/>
</g>
<path d="M38.8898 112.792C39.1365 113.039 39.3831 113.409 39.7531 113.656C39.9997 113.903 40.2464 114.027 40.493 114.273C40.6163 114.397 40.863 114.52 40.9863 114.644C40.9863 114.644 41.1096 114.644 41.1096 114.767L41.233 114.891V116.619C41.233 116.619 41.233 116.619 41.1096 116.495C40.9863 116.372 40.7397 116.248 40.6163 116.125C40.3697 116.001 40.123 115.755 39.8764 115.631C39.7531 115.631 39.7531 115.508 39.6298 115.508C38.7665 115.014 38.0265 114.52 38.0265 113.903C38.1499 113.656 38.3965 113.286 38.8898 112.792ZM56.0452 122.34C55.3053 120.735 54.3053 119.211 52.5788 118.347C51.7155 117.976 50.7289 117.606 49.7423 117.606C49.4957 117.606 49.1257 117.606 48.879 117.606C48.7557 117.606 48.6324 117.606 48.5091 117.606C47.1525 117.483 47.0292 117.236 47.0292 117.236V114.397C47.8925 113.656 48.7557 112.792 49.4957 111.928C50.1123 111.064 50.6056 110.077 50.8522 108.842C51.9621 108.595 52.7021 107.608 52.5788 106.374C52.5788 105.88 52.2088 105.386 52.2088 104.892C52.2088 104.646 52.2088 104.399 52.2088 104.152C52.2088 104.028 52.2088 103.781 52.2088 103.658C52.2088 103.535 52.2088 103.288 52.2088 103.164C52.0855 102.3 51.8388 101.436 51.3455 100.449C49.8656 97.7332 47.1525 96.0051 43.9461 96.0051C43.3295 96.0051 42.7128 96.1286 42.0962 96.252C40.9863 96.4989 39.8764 96.9926 39.0131 97.7332C38.8898 97.8566 38.6432 97.9801 38.5198 98.2269L38.3965 98.3504C37.4099 99.3379 36.5467 100.449 36.1767 101.807C35.6834 103.164 35.6834 104.522 35.8067 105.88C35.8067 105.88 35.8067 105.88 35.8067 106.003V106.127C35.8067 106.374 35.93 106.374 35.8067 106.497C35.8067 106.62 35.6834 106.62 35.6834 106.744C35.4367 107.114 35.3134 107.608 35.5601 108.349C36.0534 109.583 36.7933 109.459 37.6566 110.077C37.6566 110.077 37.5332 110.077 37.5332 110.2L36.67 110.447C32.7236 111.681 31.3671 115.014 33.0936 117.112C33.7102 117.853 34.6968 118.47 36.1767 118.84C35.8067 118.84 35.4367 119.087 35.1901 119.334C33.4636 120.692 32.3536 122.79 32.107 124.765C32.107 124.889 32.107 125.012 32.107 125.136C32.6003 125.382 32.9703 125.753 33.4636 126L52.775 125.548C54.0082 124.808 54.5538 124.236 55.6637 123.248C55.5404 122.631 56.1686 122.463 56.0452 122.34Z" fill="#8E94A7"/>
<path d="M56.6486 123.038C55.5386 124.025 54.4287 124.889 53.0722 125.63C50.1124 127.358 46.6593 128.345 42.9596 128.345C39.2599 128.345 35.8068 127.358 32.847 125.63C32.3537 125.383 31.9838 125.136 31.4905 124.766C31.4905 124.642 31.4905 124.519 31.4905 124.395C31.7371 122.42 32.847 120.322 34.5736 118.964C34.8202 118.717 35.1902 118.594 35.5602 118.471C34.0803 118.224 33.0937 117.606 32.4771 116.742H37.1634C38.5199 118.594 40.6165 119.705 43.0829 119.705C45.1794 119.705 47.0293 118.841 48.3859 117.483C48.5092 117.483 48.6325 117.483 48.7558 117.483C49.0025 117.483 49.2491 117.483 49.6191 117.483C50.6057 117.483 51.5923 117.73 52.4555 118.224C54.1821 119.088 55.4153 120.569 56.2786 122.297C56.5252 122.544 56.5252 122.791 56.6486 123.038Z" fill="#464D60"/>
<path d="M47.1528 114.397V116.989L39.3834 117.236L39.7534 115.508C39.8767 115.508 39.8767 115.632 40 115.632C40.2467 115.755 40.4933 116.002 40.74 116.125C40.8633 116.249 40.9866 116.372 41.2333 116.496C41.2333 116.496 41.3566 116.496 41.3566 116.619V114.891L41.2333 114.768C42.5898 115.508 44.4397 116.002 47.1528 114.397Z" fill="url(#paint6_linear_146_917)"/>
<path d="M52.2086 103.658C50.7287 104.152 49.0022 104.399 47.399 104.276C44.8092 104.029 42.3427 103.041 40.3695 101.313C39.7529 103.165 38.1497 104.523 36.2999 105.387C36.0532 105.51 35.8066 105.633 35.5599 105.633C35.5599 105.633 35.5599 105.633 35.5599 105.51C35.4366 104.152 35.4366 102.794 35.9299 101.437C36.2999 100.079 37.1631 98.968 38.1497 97.9805L38.273 97.8571C38.3964 97.7336 38.643 97.6102 38.7663 97.3633C39.6296 96.6227 40.7395 96.129 41.8494 95.8821C42.466 95.7587 43.0827 95.6353 43.6993 95.6353C46.9057 95.6353 49.7422 97.3633 51.0987 100.079C51.592 101.066 51.8387 102.054 51.962 102.794C52.2086 103.288 52.2086 103.535 52.2086 103.658Z" fill="#292D35"/>
<path d="M42.343 121.927C41.6031 122.791 40.3698 122.791 39.2599 122.791C40.3698 121.68 39.7532 118.1 35.8068 118.471C30.3806 117.483 30.8739 111.805 36.3001 110.077L37.1634 109.83L37.2867 109.954C37.6567 111.065 38.2733 112.052 38.8899 112.793C36.6701 114.644 39.7532 115.138 41.2331 116.619C42.4663 117.36 43.5762 120.446 42.343 121.927Z" fill="#292D35"/>
</g>
<defs>
<filter id="filter0_d_146_917" x="36.8956" y="0.34668" width="85.3135" height="85.2271" filterUnits="userSpaceOnUse" color-interpolation-filters="sRGB">
<feFlood flood-opacity="0" result="BackgroundImageFix"/>
<feColorMatrix in="SourceAlpha" type="matrix" values="0 0 0 0 0 0 0 0 0 0 0 0 0 0 0 0 0 0 127 0" result="hardAlpha"/>
<feOffset dy="11"/>
<feGaussianBlur stdDeviation="11"/>
<feColorMatrix type="matrix" values="0 0 0 0 0 0 0 0 0 0 0 0 0 0 0 0 0 0 0.27 0"/>
<feBlend mode="normal" in2="BackgroundImageFix" result="effect1_dropShadow_146_917"/>
<feBlend mode="normal" in="SourceGraphic" in2="effect1_dropShadow_146_917" result="shape"/>
</filter>
<filter id="filter1_d_146_917" x="73.8287" y="76.5486" width="85.3135" height="85.2271" filterUnits="userSpaceOnUse" color-interpolation-filters="sRGB">
<feFlood flood-opacity="0" result="BackgroundImageFix"/>
<feColorMatrix in="SourceAlpha" type="matrix" values="0 0 0 0 0 0 0 0 0 0 0 0 0 0 0 0 0 0 127 0" result="hardAlpha"/>
<feOffset dy="11"/>
<feGaussianBlur stdDeviation="11"/>
<feColorMatrix type="matrix" values="0 0 0 0 0 0 0 0 0 0 0 0 0 0 0 0 0 0 0.27 0"/>
<feBlend mode="normal" in2="BackgroundImageFix" result="effect1_dropShadow_146_917"/>
<feBlend mode="normal" in="SourceGraphic" in2="effect1_dropShadow_146_917" result="shape"/>
</filter>
<filter id="filter2_d_146_917" x="0.857605" y="77.3516" width="84.2036" height="83.9939" filterUnits="userSpaceOnUse" color-interpolation-filters="sRGB">
<feFlood flood-opacity="0" result="BackgroundImageFix"/>
<feColorMatrix in="SourceAlpha" type="matrix" values="0 0 0 0 0 0 0 0 0 0 0 0 0 0 0 0 0 0 127 0" result="hardAlpha"/>
<feOffset dy="11"/>
<feGaussianBlur stdDeviation="11"/>
<feColorMatrix type="matrix" values="0 0 0 0 0 0 0 0 0 0 0 0 0 0 0 0 0 0 0.27 0"/>
<feBlend mode="normal" in2="BackgroundImageFix" result="effect1_dropShadow_146_917"/>
<feBlend mode="normal" in="SourceGraphic" in2="effect1_dropShadow_146_917" result="shape"/>
</filter>
<linearGradient id="paint0_linear_146_917" x1="70.3099" y1="70.1543" x2="85.3498" y2="95.5363" gradientUnits="userSpaceOnUse">
<stop stop-color="#E3EAF7"/>
<stop offset="1" stop-color="#ADB6C8"/>
</linearGradient>
<linearGradient id="paint1_linear_146_917" x1="79.5389" y1="10.3931" x2="79.5389" y2="53.0182" gradientUnits="userSpaceOnUse">
<stop stop-color="#5C6479"/>
<stop offset="0.9964" stop-color="#5C6479"/>
</linearGradient>
<linearGradient id="paint2_linear_146_917" x1="80.0877" y1="41.0535" x2="80.0877" y2="38.2733" gradientUnits="userSpaceOnUse">
<stop stop-color="#8E94A7"/>
<stop offset="0.9913" stop-color="#6C707C"/>
</linearGradient>
<linearGradient id="paint3_linear_146_917" x1="116.472" y1="86.595" x2="116.472" y2="129.22" gradientUnits="userSpaceOnUse">
<stop stop-color="#5C6479"/>
<stop offset="0.9964" stop-color="#5C6479"/>
</linearGradient>
<linearGradient id="paint4_linear_146_917" x1="117.021" y1="117.255" x2="117.021" y2="114.475" gradientUnits="userSpaceOnUse">
<stop stop-color="#8E94A7"/>
<stop offset="0.9913" stop-color="#6C707C"/>
</linearGradient>
<linearGradient id="paint5_linear_146_917" x1="42.9463" y1="87.4265" x2="42.9463" y2="128.777" gradientUnits="userSpaceOnUse">
<stop stop-color="#5C6479"/>
<stop offset="0.9964" stop-color="#5C6479"/>
</linearGradient>
<linearGradient id="paint6_linear_146_917" x1="43.2531" y1="117.148" x2="43.2531" y2="115.661" gradientUnits="userSpaceOnUse">
<stop stop-color="#8E94A7"/>
<stop offset="0.9913" stop-color="#6C707C"/>
</linearGradient>
</defs>
</svg>
