<svg width="128" height="26" viewBox="0 0 128 26" fill="none" xmlns="http://www.w3.org/2000/svg">
<g clip-path="url(#clip0_14_42)">
<path d="M32.3351 20.9082C30.3994 20.9082 28.8596 20.3672 27.7158 19.2854C26.5719 18.1885 26 16.6258 26 14.5973V10.8108C26 8.78235 26.5719 7.22718 27.7158 6.14532C28.8596 5.04844 30.3994 4.5 32.3351 4.5C34.2709 4.5 35.8107 5.04844 36.9545 6.14532C38.0984 7.22718 38.6703 8.78235 38.6703 10.8108V14.5973C38.6703 16.6258 38.0984 18.1885 36.9545 19.2854C35.8107 20.3672 34.2709 20.9082 32.3351 20.9082ZM32.3351 18.2486C33.4203 18.2486 34.2635 17.9255 34.8648 17.2794C35.466 16.6333 35.7667 15.7693 35.7667 14.6875V10.7207C35.7667 9.63882 35.466 8.77484 34.8648 8.12873C34.2635 7.48262 33.4203 7.15957 32.3351 7.15957C31.2646 7.15957 30.4214 7.48262 29.8055 8.12873C29.2042 8.77484 28.9036 9.63882 28.9036 10.7207V14.6875C28.9036 15.7693 29.2042 16.6333 29.8055 17.2794C30.4214 17.9255 31.2646 18.2486 32.3351 18.2486Z" fill="#0A0A0A"/>
<path d="M41.3051 20.5926V9.41343H44.0327V10.8784H44.4287C44.6047 10.4878 44.9346 10.1196 45.4186 9.77405C45.9025 9.41343 46.6357 9.23312 47.6183 9.23312C48.4688 9.23312 49.2094 9.43597 49.84 9.84167C50.4852 10.2323 50.9838 10.7808 51.3357 11.487C51.6877 12.1782 51.8637 12.9896 51.8637 13.9212V20.5926H49.0921V14.1466C49.0921 13.3051 48.8867 12.674 48.4761 12.2533C48.0802 11.8326 47.5083 11.6222 46.7604 11.6222C45.9098 11.6222 45.2499 11.9152 44.7806 12.5012C44.3114 13.0722 44.0767 13.8761 44.0767 14.9129V20.5926H41.3051Z" fill="#0A0A0A"/>
<path d="M59.8312 20.9082C58.7461 20.9082 57.7855 20.6753 56.9496 20.2095C56.1284 19.7286 55.4832 19.06 55.0139 18.2035C54.5593 17.332 54.332 16.3103 54.332 15.1383V14.8678C54.332 13.6958 54.5593 12.6815 55.0139 11.8251C55.4685 10.9536 56.1064 10.2849 56.9276 9.81913C57.7489 9.3383 58.7021 9.09789 59.7872 9.09789C60.8578 9.09789 61.789 9.34582 62.5809 9.84167C63.3728 10.3225 63.9887 10.9987 64.4286 11.8701C64.8686 12.7266 65.0885 13.7258 65.0885 14.8678V15.837H57.1476C57.1769 16.6033 57.4556 17.2268 57.9835 17.7077C58.5114 18.1885 59.1567 18.4289 59.9192 18.4289C60.6965 18.4289 61.2684 18.2561 61.635 17.9105C62.0016 17.5649 62.2802 17.1818 62.4709 16.761L64.7366 17.9781C64.5313 18.3688 64.2306 18.797 63.8347 19.2628C63.4534 19.7136 62.9401 20.1043 62.2949 20.4348C61.6497 20.7504 60.8284 20.9082 59.8312 20.9082ZM57.1696 13.7183H62.2729C62.2142 13.0722 61.9576 12.5538 61.503 12.1632C61.0631 11.7725 60.4838 11.5771 59.7652 11.5771C59.0173 11.5771 58.4234 11.7725 57.9835 12.1632C57.5435 12.5538 57.2723 13.0722 57.1696 13.7183Z" fill="#0A0A0A"/>
<path d="M67.4675 20.5926V4.81554H74.1546C75.1224 4.81554 75.9656 4.98834 76.6842 5.33393C77.4028 5.67952 77.96 6.16786 78.356 6.79895C78.7519 7.43003 78.9499 8.17381 78.9499 9.03028V9.30074C78.9499 10.2474 78.7299 11.0137 78.29 11.5997C77.8501 12.1857 77.3075 12.6139 76.6622 12.8844V13.2901C77.2488 13.3201 77.7034 13.5305 78.026 13.9212C78.3487 14.2968 78.51 14.8002 78.51 15.4313V20.5926H75.6064V15.8595C75.6064 15.4989 75.511 15.2059 75.3204 14.9805C75.1444 14.7551 74.8438 14.6424 74.4185 14.6424H70.3711V20.5926H67.4675ZM70.3711 11.9378H73.8466C74.5358 11.9378 75.0711 11.7499 75.4524 11.3743C75.8483 10.9836 76.0463 10.4728 76.0463 9.84167V9.61628C76.0463 8.9852 75.8557 8.48183 75.4744 8.10619C75.0931 7.71552 74.5505 7.52018 73.8466 7.52018H70.3711V11.9378Z" fill="#0A0A0A"/>
<path d="M85.6114 20.7729C84.7608 20.7729 84.0129 20.5776 83.3677 20.1869C82.7371 19.7812 82.2459 19.2253 81.8939 18.5191C81.5419 17.8128 81.366 17.0015 81.366 16.0849V9.41343H84.1376V15.8595C84.1376 16.7009 84.3356 17.332 84.7315 17.7527C85.1421 18.1735 85.7214 18.3838 86.4693 18.3838C87.3198 18.3838 87.9797 18.0983 88.449 17.5274C88.9183 16.9414 89.1529 16.13 89.1529 15.0932V9.41343H91.9245V20.5926H89.1969V19.1276H88.801C88.625 19.5033 88.295 19.8714 87.8111 20.232C87.3272 20.5926 86.5939 20.7729 85.6114 20.7729Z" fill="#0A0A0A"/>
<path d="M95.0088 20.5926V9.41343H97.7364V10.8784H98.1323C98.3083 10.4878 98.6383 10.1196 99.1222 9.77405C99.6061 9.41343 100.339 9.23312 101.322 9.23312C102.172 9.23312 102.913 9.43597 103.544 9.84167C104.189 10.2323 104.687 10.7808 105.039 11.487C105.391 12.1782 105.567 12.9896 105.567 13.9212V20.5926H102.796V14.1466C102.796 13.3051 102.59 12.674 102.18 12.2533C101.784 11.8326 101.212 11.6222 100.464 11.6222C99.6135 11.6222 98.9536 11.9152 98.4843 12.5012C98.015 13.0722 97.7804 13.8761 97.7804 14.9129V20.5926H95.0088Z" fill="#0A0A0A"/>
<path d="M109.841 20.8316C109.452 20.8316 109.119 20.6898 108.84 20.4062C108.571 20.112 108.436 19.7601 108.436 19.3503C108.436 18.9406 108.571 18.5939 108.84 18.3103C109.119 18.0161 109.452 17.869 109.841 17.869C110.229 17.869 110.558 18.0161 110.827 18.3103C111.106 18.5939 111.246 18.9406 111.246 19.3503C111.246 19.7601 111.106 20.112 110.827 20.4062C110.558 20.6898 110.229 20.8316 109.841 20.8316Z" fill="#0A0A0A"/>
<path d="M115.843 20.8159C114.797 20.8159 113.975 20.548 113.377 20.0122C112.789 19.4764 112.495 18.7673 112.495 17.8848C112.495 16.9603 112.794 16.2459 113.392 15.7417C113.999 15.2374 114.871 14.9853 116.007 14.9853H118.742V14.6071C118.742 13.4514 118.104 12.8736 116.829 12.8736C115.753 12.8736 115.1 13.2833 114.871 14.1028H112.644C112.824 13.0942 113.272 12.3273 113.99 11.8021C114.717 11.2663 115.663 10.9984 116.829 10.9984C118.144 10.9984 119.146 11.3135 119.833 11.9439C120.521 12.5637 120.864 13.4724 120.864 14.6701V18.2945H121.925V20.6425H119.639V19.1297H119.011C118.702 19.6655 118.284 20.0805 117.756 20.3746C117.238 20.6688 116.6 20.8159 115.843 20.8159ZM116.172 19.0037C116.66 19.0037 117.098 18.9091 117.487 18.72C117.875 18.5204 118.179 18.2578 118.398 17.9321C118.627 17.5959 118.742 17.223 118.742 16.8132V16.5926H116.127C115.12 16.5926 114.617 16.9866 114.617 17.7745C114.617 18.1632 114.752 18.4679 115.021 18.6885C115.3 18.8986 115.683 19.0037 116.172 19.0037Z" fill="#0A0A0A"/>
<path d="M123.639 20.6425V11.1875H125.865V20.6425H123.639ZM124.745 10.1474C124.396 10.1474 124.097 10.0213 123.848 9.76921C123.609 9.50657 123.489 9.1914 123.489 8.82371C123.489 8.45601 123.609 8.1461 123.848 7.89396C124.097 7.63132 124.396 7.5 124.745 7.5C125.093 7.5 125.387 7.63132 125.626 7.89396C125.875 8.1461 126 8.45601 126 8.82371C126 9.1914 125.875 9.50657 125.626 9.76921C125.387 10.0213 125.093 10.1474 124.745 10.1474Z" fill="#0A0A0A"/>
<path d="M14.5535 19.5704C14.8149 19.5578 15.062 19.5994 15.3037 19.5447C15.3109 19.4451 15.2477 19.4048 15.2005 19.3565C14.6628 18.807 14.1243 18.2584 13.5865 17.7092C13.4243 17.5435 13.4245 17.5425 13.5833 17.3806C14.8317 16.1095 16.0806 14.8388 17.3285 13.5672C17.9817 12.9016 18.4229 12.1155 18.5889 11.183C18.8207 9.88051 18.5495 8.69247 17.7624 7.6401C17.083 6.73165 16.176 6.18824 15.0822 5.96897C14.8623 5.9249 14.6375 5.91167 14.4127 5.9116C11.4583 5.91074 8.50387 5.9096 5.54948 5.90862C5.30684 5.90854 5.30544 5.90889 5.30543 6.20573C5.30523 11.0106 5.30542 15.8155 5.3055 20.6203C5.3055 20.7064 5.30503 20.8031 5.3044 20.9057C5.30089 21.4815 4.84329 21.9564 4.28185 21.9573L4.00147 21.9577C3.44862 21.9585 3 21.4992 3 20.9322C3.00001 18.1721 3.00036 15.2597 3.00033 12.5431C3.00031 10.2843 3.00036 7.89237 3.00036 5.57241C3.00035 4.4395 3.89558 3.52104 5.00007 3.51734C8.08734 3.507 11.2748 3.48215 14.3058 3.52125C16.9945 3.55594 19.0074 4.83341 20.2883 7.26319C20.6706 7.9882 20.8808 8.777 20.9618 9.59989C21.1325 11.3339 20.7307 12.9137 19.7514 14.3402C19.4119 14.8349 18.9872 15.2504 18.5715 15.6746C18.013 16.2444 17.4584 16.8181 16.8957 17.3835C16.779 17.5007 16.774 17.5741 16.8934 17.6956C18.2281 19.0538 19.5577 20.4171 20.8886 21.7791C20.9246 21.8159 20.9717 21.845 20.971 21.9146C20.8881 21.983 20.7864 21.9523 20.6935 21.9523C17.3994 21.9543 14.1052 21.9541 10.811 21.9539C9.80899 21.9539 8.80688 21.9532 7.80481 21.9521C7.56236 21.9518 7.56157 21.9507 7.56156 21.7109C7.56143 17.2829 7.56144 12.8548 7.56165 8.42679C7.56166 8.19678 7.56258 8.19566 7.79079 8.19561C9.98499 8.19511 12.1792 8.19345 14.3734 8.19552C15.3871 8.19648 16.2534 8.98512 16.4008 10.0093C16.5099 10.7667 16.2928 11.4024 15.7714 11.9373C14.5152 13.226 13.2558 14.5113 12.0022 15.8027C11.8875 15.9208 11.8211 15.9107 11.7128 15.7978C11.1806 15.243 10.6412 14.6953 10.1028 14.1468C10.0563 14.0993 10.0209 14.0296 9.93979 14.0289C9.87179 14.0816 9.88929 14.1575 9.88919 14.2249C9.88779 15.9267 9.88749 17.6284 9.88779 19.3301C9.88789 19.5495 9.91239 19.5712 10.1477 19.5712C11.6105 19.5712 13.0734 19.5707 14.5535 19.5704Z" fill="#5EE9B5"/>
</g>
<defs>
<clipPath id="clip0_14_42">
<rect width="128" height="25" fill="white" transform="translate(0 0.5)"/>
</clipPath>
</defs>
</svg>
