<svg width="24" height="24" viewBox="0 0 24 24" fill="none" xmlns="http://www.w3.org/2000/svg">
<g clip-path="url(#clip0_0_8)">
<path d="M18.4615 0H5.53846C2.47965 0 0 2.47965 0 5.53846V18.4615C0 21.5203 2.47965 24 5.53846 24H18.4615C21.5203 24 24 21.5203 24 18.4615V5.53846C24 2.47965 21.5203 0 18.4615 0Z" fill="#0A0A0A"/>
<path d="M14.5535 18.6707C14.8149 18.6584 15.062 18.699 15.3037 18.6456C15.3109 18.5484 15.2477 18.5091 15.2005 18.462C14.6628 17.9262 14.1243 17.3913 13.5865 16.8557C13.4243 16.6942 13.4245 16.6932 13.5833 16.5353C14.8317 15.2958 16.0806 14.0567 17.3285 12.8168C17.9817 12.1678 18.4229 11.4012 18.5889 10.4918C18.8207 9.22179 18.5495 8.0633 17.7624 7.03711C17.083 6.15126 16.176 5.62137 15.0822 5.40756C14.8623 5.36458 14.6375 5.35168 14.4127 5.35161C11.4583 5.35078 8.50387 5.34966 5.54948 5.34871C5.30684 5.34863 5.30544 5.34897 5.30543 5.63842C5.30523 10.3238 5.30542 15.0091 5.3055 19.6945C5.3055 19.7784 5.30503 19.8727 5.3044 19.9727C5.30089 20.5342 4.84329 20.9973 4.28185 20.9981L4.00147 20.9985C3.44862 20.9993 3 20.5514 3 19.9985C3.00001 17.3071 3.00036 14.4671 3.00033 11.8181C3.00031 9.61557 3.00036 7.28311 3.00036 5.02086C3.00035 3.91613 3.89558 3.02052 5.00007 3.0169C8.08734 3.00682 11.2748 2.9826 14.3058 3.02073C16.9945 3.05455 19.0074 4.30024 20.2883 6.66958C20.6706 7.37656 20.8808 8.14573 20.9618 8.94815C21.1325 10.6391 20.7307 12.1796 19.7514 13.5705C19.4119 14.0529 18.9872 14.4581 18.5715 14.8717C18.013 15.4274 17.4584 15.9868 16.8957 16.5381C16.779 16.6525 16.774 16.724 16.8934 16.8425C18.2281 18.1669 19.5577 19.4963 20.8886 20.8244C20.9246 20.8603 20.9717 20.8887 20.971 20.9565C20.8881 21.0232 20.7864 20.9933 20.6935 20.9933C17.3994 20.9952 14.1052 20.995 10.811 20.9948C9.80899 20.9948 8.80688 20.9941 7.80481 20.9931C7.56236 20.9928 7.56157 20.9917 7.56156 20.7579C7.56143 16.44 7.56144 12.1221 7.56165 7.80423C7.56166 7.57995 7.56258 7.57886 7.79079 7.57881C9.98499 7.57832 12.1792 7.5767 14.3734 7.57872C15.3871 7.57966 16.2534 8.34868 16.4008 9.34742C16.5099 10.086 16.2928 10.7058 15.7714 11.2274C14.5152 12.484 13.2558 13.7374 12.0022 14.9966C11.8875 15.1119 11.8211 15.102 11.7128 14.9919C11.1806 14.4509 10.6412 13.9168 10.1028 13.3819C10.0563 13.3356 10.0209 13.2677 9.93979 13.267C9.87179 13.3184 9.88929 13.3924 9.88919 13.4581C9.88779 15.1176 9.88749 16.777 9.88779 18.4363C9.88789 18.6503 9.91239 18.6715 10.1477 18.6715C11.6105 18.6715 13.0734 18.671 14.5535 18.6707Z" fill="#5EE9B5"/>
</g>
<defs>
<clipPath id="clip0_0_8">
<rect width="24" height="24" fill="white"/>
</clipPath>
</defs>
</svg>
